<svg width="512" height="512" viewBox="0 0 512 512" fill="none">
    <path d="M465.685 0H46.3146C20.736 0 0 20.736 0 46.3146V465.684C0 491.264 20.736 512 46.3146 512H465.684C491.264 512 512 491.264 512 465.684V46.3146C512 20.736 491.264 0 465.685 0ZM158.435 442.095C158.435 449.539 152.4 455.573 144.956 455.573H87.5828C80.1387 455.573 74.1046 449.539 74.1046 442.095V201.587C74.1046 194.143 80.1387 188.109 87.5828 188.109H144.956C152.4 188.109 158.435 194.143 158.435 201.587V442.095ZM116.27 165.438C86.1675 165.438 61.7644 141.035 61.7644 110.932C61.7644 80.8303 86.1675 56.4272 116.27 56.4272C146.372 56.4272 170.775 80.8303 170.775 110.932C170.775 141.035 146.373 165.438 116.27 165.438ZM458.267 443.18C458.267 450.024 452.718 455.573 445.874 455.573H384.308C377.465 455.573 371.916 450.024 371.916 443.18V330.369C371.916 313.54 376.852 256.623 327.936 256.623C289.993 256.623 282.297 295.581 280.752 313.064V443.18C280.752 450.024 275.204 455.573 268.359 455.573H208.814C201.971 455.573 196.422 450.024 196.422 443.18V200.502C196.422 193.658 201.971 188.109 208.814 188.109H268.359C275.203 188.109 280.752 193.658 280.752 200.502V221.484C294.821 200.37 315.73 184.073 360.248 184.073C458.831 184.073 458.267 276.174 458.267 326.779V443.18Z" fill="#6A4FFE"/>
</svg>
